<svg height="512" viewBox="0 0 512 512" width="512" xmlns="http://www.w3.org/2000/svg"><g id="filled_outline" data-name="filled outline"><circle cx="432" cy="392" fill="#eae9e4" r="16"/><circle cx="80" cy="392" fill="#eae9e4" r="16"/><path d="m432 329.5a62.5 62.5 0 1 0 62.5 62.5 62.5 62.5 0 0 0 -62.5-62.5z" fill="#6a6c65"/><path d="m80 329.5a62.5 62.5 0 1 0 62.5 62.5 62.5 62.5 0 0 0 -62.5-62.5z" fill="#6a6c65"/><path d="m184 152h32l-8 56 64-72h-32l8-56z" fill="#ee9d0d"/><path d="m80 264v24l56 8 32 40h48l72-64h-12.949a97.67 97.67 0 0 0 -50.251 13.917 70.747 70.747 0 0 1 -36.4 10.083h-12.4l-32-32z" fill="#7a4922"/><path d="m288 272-72 64h-48l-6.8-8.5h49.42l64.43-55.5z" fill="#7a4922"/><g fill="#2c91ff"><path d="m192 432-24-24v-72h48l72-64h48l16 24v88l-40 48z"/><path d="m352 312v16h-32a8 8 0 0 1 0-16z"/><path d="m352 344v16h-32a8 8 0 0 1 0-16z"/><path d="m352 376v8l-6.67 8h-25.33a8 8 0 0 1 0-16z"/></g><path d="m168 376h-96l-2.297 32h98.297z" fill="#dcdbd6"/><path d="m344 232-24-16h-44a12 12 0 0 0 -12 12 12 12 0 0 0 12 12h28l16 8z" fill="#7a4922"/><path d="m360 256 3.287-1.1a134.547 134.547 0 0 1 42.547-6.9h2.166v48h-24z" fill="#2c91ff"/><path d="m448 392-104-160-24 16 106.668 160.002z" fill="#dcdbd6"/><path d="m204.634 215.257a8 8 0 0 0 9.345-1.942l64-72a8 8 0 0 0 -5.979-13.315h-22.776l6.7-46.869a8 8 0 0 0 -13.9-6.446l-64 72a8 8 0 0 0 5.976 13.315h22.776l-6.7 46.869a8 8 0 0 0 4.558 8.388zm-2.82-71.257 34.507-38.82-4.241 29.689a8 8 0 0 0 7.92 9.131h14.186l-34.507 38.82 4.241-29.689a8 8 0 0 0 -7.92-9.131z"/><path d="m307.958 191.271a8 8 0 0 0 10.607-3.934 104.015 104.015 0 1 0 -94.565 60.663c2.886 0 5.8-.12 8.658-.356a8 8 0 1 0 -1.316-15.945c-2.423.2-4.894.3-7.342.3a87.93 87.93 0 1 1 80.024-51.337 8 8 0 0 0 3.934 10.609z"/><path d="m432 328a64.092 64.092 0 0 0 -14.913 1.762l-16.745-25.762h7.658a8 8 0 0 0 8-8v-48a8 8 0 0 0 -8-8h-2.166a142.266 142.266 0 0 0 -42.812 6.585s-12.537-19.255-12.6-19.339c-.124-.169-25.984-17.9-25.984-17.9a8 8 0 0 0 -4.438-1.346h-44a20 20 0 0 0 0 40h26.111l12.411 6.206 6.53 9.794h-46a105.682 105.682 0 0 0 -54.363 15.058 62.764 62.764 0 0 1 -32.289 8.942h-9.09l-29.656-29.657a8 8 0 0 0 -5.654-2.343h-64a8 8 0 0 0 -8 8v24a8 8 0 0 0 6.868 7.919l52.864 7.553 28.268 35.334v29.194h-20.67a64 64 0 1 0 0 48h25.356l21.657 21.657a8 8 0 0 0 5.657 2.343h120a8 8 0 0 0 6.146-2.878l40-48a8 8 0 0 0 1.854-5.122v-61.578l20.794 31.191a64 64 0 1 0 51.206-25.613zm-352 112a48 48 0 1 1 41.557-72h-42.557a8.062 8.062 0 0 0 -1.271.11 24 24 0 0 0 2.271 47.89h41.557a48.358 48.358 0 0 1 -41.557 24zm8-48a8 8 0 1 1 -8-8 8.009 8.009 0 0 1 8 8zm72 8h-57.376a23.944 23.944 0 0 0 0-16h57.376zm272-16a8 8 0 1 1 -8 8 8.009 8.009 0 0 1 8-8zm-32-127.866v31.866h-10.058l-17.817-27.41a126.248 126.248 0 0 1 27.875-4.456zm-80.575-17.365-11.847-5.924a7.994 7.994 0 0 0 -3.578-.845h-28a4 4 0 0 1 0-8h41.578l12 8zm-177.178 52.231a8 8 0 0 0 -5.115-2.921l-49.132-7.017v-9.062h52.687l29.656 29.657a8 8 0 0 0 5.657 2.343h12.4a78.766 78.766 0 0 0 40.518-11.223 89.679 89.679 0 0 1 37.568-12.36l-53.528 47.583h-41.113zm201.753 21h-24a8 8 0 0 0 0 16h24v16h-24a8 8 0 0 0 0 16h24v16h-24a8 8 0 0 0 0 16h14.92l-26.667 32h-112.94l-19.313-19.314v-60.686h40a7.994 7.994 0 0 0 5.314-2.021l69.728-61.979h40.677l12.281 18.422zm14.656-20.438-16-24-11.562-17.343 10.609-7.073 82.094 126.3a24.063 24.063 0 0 0 -9.19 6.044zm73.344 148.438a48 48 0 0 1 -41.589-71.962l17.738 26.607a24 24 0 1 0 35.915-23.379l-17.518-26.952a48.725 48.725 0 0 1 5.454-.314 48 48 0 0 1 0 96z"/><path d="m272 360h-19.056l10.211-20.422a8 8 0 0 0 -14.31-7.156l-16 32a8 8 0 0 0 7.155 11.578h19.056l-10.211 20.422a8 8 0 1 0 14.31 7.156l16-32a8 8 0 0 0 -7.155-11.578z"/></g></svg>