<svg height="512" viewBox="0 0 512 512" width="512" xmlns="http://www.w3.org/2000/svg"><g><g fill="#57a4ff"><path d="m376 160-48 22.4v97.6h-144v-97.6l-48-22.4 120-56z"/><circle cx="376" cy="224" r="16"/><path d="m496 328v24a16 16 0 0 1 -16 16h-448a16 16 0 0 1 -16-16v-24z"/><path d="m152 424h208v24h-208z"/><path d="m184 182.4h144v97.6h-144z"/><circle cx="376" cy="224" r="16"/><path d="m376 160-48 22.4-72 33.6-72-33.6-48-22.4 120-56z"/></g><g fill="#004fac"><path d="m480 56h-448a24.032 24.032 0 0 0 -24 24v272a24.032 24.032 0 0 0 24 24h165.39l-11.42 40h-33.97a8 8 0 0 0 -8 8v16h-64a8 8 0 0 0 0 16h352a8 8 0 0 0 0-16h-64v-16a8 8 0 0 0 -8-8h-33.97l-11.42-40h165.39a24.032 24.032 0 0 0 24-24v-272a24.032 24.032 0 0 0 -24-24zm-128 376v8h-192v-8zm-149.39-16 11.42-40h83.94l11.42 40zm285.39-64a8.011 8.011 0 0 1 -8 8h-448a8.011 8.011 0 0 1 -8-8v-16h464zm0-32h-464v-240a8.011 8.011 0 0 1 8-8h448a8.011 8.011 0 0 1 8 8z"/><path d="m384 201.38v-41.38a8 8 0 0 0 -4.62-7.25l-120-56a7.991 7.991 0 0 0 -6.76 0l-120 56a8 8 0 0 0 0 14.5l43.38 20.24v92.51a8 8 0 0 0 8 8h144a8 8 0 0 0 8-8v-92.51l32-14.93v28.82a24 24 0 1 0 16 0zm-64 70.62h-128v-77.04l60.62 28.29a7.991 7.991 0 0 0 6.76 0l60.62-28.29zm-64-64.83-101.08-47.17 101.08-47.17 101.08 47.17zm120 24.83a8 8 0 1 1 8-8 8.011 8.011 0 0 1 -8 8z"/></g></g></svg>